PathFileType	4	(X/Y/Z)	Patient4_TMGait_0pt7_02_left_03.trc.trc
DataRate	CameraRate	NumFrames	NumMarkers	Units	OrigDataRate	OrigDataStartFrame	OrigNumFrames
86.419753086420	86.419753086420	6	33	mm	86.419753086420	1	       141
Frame#	Time	Sacral			L.Shoulder			Chest			R.Shoulder			Neck			R.ASIS			L.ASIS			R.Thigh.Superior			R.Thigh.Lateral			R.Thigh.Inferior			R.Patella			L.Thigh.Superior			L.Thigh.Lateral			L.Thigh.Inferior			L.Patella			L.Shank.Superior			L.Shank.Lateral			L.Shank.Inferior			R.Shank.Superior			R.Shank.Lateral			R.Shank.Inferior			R.Heel			R.Midfoot.Superior			R.Midfoot.Lateral			R.Toe			L.Heel			L.Midfoot.Lateral			L.Midfoot.Superior			L.Toe			L.Elbow			L.Wrist			R.Elbow			R.Wrist			
		X1	Y1	Z1	X2	Y2	Z2	X3	Y3	Z3	X4	Y4	Z4	X5	Y5	Z5	X6	Y6	Z6	X7	Y7	Z7	X8	Y8	Z8	X9	Y9	Z9	X10	Y10	Z10	X11	Y11	Z11	X12	Y12	Z12	X13	Y13	Z13	X14	Y14	Z14	X15	Y15	Z15	X16	Y16	Z16	X17	Y17	Z17	X18	Y18	Z18	X19	Y19	Z19	X20	Y20	Z20	X21	Y21	Z21	X22	Y22	Z22	X23	Y23	Z23	X24	Y24	Z24	X25	Y25	Z25	X26	Y26	Z26	X27	Y27	Z27	X28	Y28	Z28	X29	Y29	Z29	X30	Y30	Z30	X31	Y31	Z31	X32	Y32	Z32	X33	Y33	Z33	

1	3.010000000000	798.517476168302	1016.175120572829	522.877212089546	986.877557686401	1427.483062667034	309.554836466302	1100.974350304427	1354.853011966350	462.524993592235	1040.925247887102	1442.637257164536	639.839670223089	1008.739202612692	1491.518617258722	461.278255681483	1031.267048289983	943.218862072130	622.932345122733	996.224380553208	958.298004449426	351.155800921839	1065.799407631021	741.608016965394	601.055005411078	979.863750287747	635.191006996719	658.344684918147	1056.403606206486	581.806237717199	578.205889275309	1054.970407648555	493.967891038493	582.577945414244	1079.065375243996	782.776371988370	373.470815783823	1030.921735554120	658.658221565758	293.289650801651	1139.893804529652	594.566598211091	345.462729605746	1151.819338891356	503.197315511316	335.032741545800	1080.061597127188	438.530973801829	331.085035893360	933.439431095335	408.406561539103	288.538790064639	912.472309307064	280.018292436160	342.903130298599	1027.144483597434	406.190308740719	587.666920876553	955.340825192099	301.593237943946	646.843038787861	997.373377532944	207.805629016204	580.701400137979	863.015066572781	43.796270346046	546.851236797787	1035.316194090686	97.678650596176	583.163705107825	946.592891875516	37.072102903576	620.032438118951	1155.173503554688	41.654798823055	608.769331482258	720.149881369709	239.544135210315	386.801035950183	767.105643498835	181.066612256046	308.063183684196	873.063300850129	174.401318917051	325.772272367606	931.644565359451	49.663301576880	303.394134413565	906.895064524892	1077.164590617669	221.386271267127	979.729630399270	824.156610292229	220.577358122871	1019.944138570505	1103.487729484912	786.456578947850	1185.114894401678	901.654006340181	760.897803624947	
2	3.021571428571	796.878858592461	1017.147824839016	524.154199840162	985.424444188834	1427.909996973060	310.141869933134	1100.207607750222	1354.931716088172	462.364301190277	1041.746347134230	1442.962851496696	640.009563506509	1008.295103248440	1491.850484695925	461.709577625147	1029.280308798471	943.576738040500	623.695588901891	993.712798182210	958.878119563226	351.817619954375	1061.123341816188	741.125597093432	601.466717422656	973.824390416841	635.753661041947	659.127399753167	1049.214133417367	581.342698470015	578.950318723354	1046.822094943648	494.027660531895	583.332570707014	1078.707287036363	787.162866574077	373.976199239697	1033.489492540825	662.242327390329	292.990463836137	1144.004222606985	600.815120053673	344.611156223688	1158.448208210863	510.139770563119	334.014301420588	1089.537591251767	443.230495002447	330.325771738994	944.557188026078	406.591426757869	288.517168562566	930.060129904098	277.443467629306	342.457146351636	1018.803330759377	406.408188668115	588.284758319509	946.725866357732	302.000746903812	647.448932683284	988.966309341310	208.127866200693	581.264023281353	854.454872538851	43.996037068443	547.008305926570	1026.793921630687	97.650214983742	583.397290312305	938.048072439967	37.091702494650	620.147512109395	1146.599479184671	41.513916007264	608.910772447076	740.765469137240	227.160000022388	387.370578545842	789.950183972231	171.937860456592	307.862914369762	895.874700184360	170.786314712985	324.841145678228	960.552080605290	49.896253688772	301.009752768098	898.779655341265	1079.095228409924	223.288910495867	956.808543427468	823.903533957075	224.470819527615	1032.567713873257	1104.461434478771	787.243592707863	1208.200312039237	914.932823598135	757.083418602460	
3	3.033142857143	795.253106513860	1018.095724232062	525.380387886976	984.000901563472	1428.322169483622	310.715243060250	1099.458126882187	1354.988774874140	462.195993328242	1042.558570962084	1443.244246789565	640.172046774856	1007.858178579691	1492.154234272627	462.138376464600	1027.333548554903	943.918566969251	624.406456452746	991.238098685565	959.408165871624	352.445207239766	1056.486317505162	740.645099563075	601.810889671370	967.877076798374	636.301104796971	659.881672932426	1042.126279447976	580.880785749287	579.664785157354	1038.783015904701	494.079386459202	584.075846495322	1078.287245104770	791.401941439365	374.476275320410	1035.947532443822	665.717866141212	292.697602700264	1147.918123733556	606.877218366805	343.823322159757	1164.816792744282	516.913728675891	333.034518701593	1098.768956506718	447.815336889744	329.566786235411	955.493750036895	404.636231577957	288.498956026432	947.535438891957	274.780038745001	341.952276650377	1010.575122973359	406.624247676475	588.896317685280	938.228947269057	302.398498550879	648.044797228135	980.660845893569	208.444406574792	581.818750729469	846.000008092151	44.197825119175	547.167220557615	1018.375055296550	97.619281154400	583.621272227801	929.608064383938	37.109056644812	620.258618230433	1138.128526083703	41.373108179910	609.049123649031	761.394621392153	214.693314919636	387.882951889136	812.752558414919	162.743818872165	307.591446809373	918.598459399878	167.104929206377	323.832962261530	989.325989954943	50.119074380769	298.521219875517	890.700839042155	1081.054268021376	225.118598628425	934.372084878803	823.843870970746	228.354005858048	1045.005105753969	1105.454928485037	787.972524924740	1230.856250864435	928.233604947727	753.185773391936	
4	3.044714285714	793.641951585523	1018.991746393718	526.495822912106	982.631120505601	1428.702638939689	311.258092006331	1098.737490201910	1354.988648558224	462.003306725365	1043.358241085700	1443.426386461882	640.313180910553	1007.436126152133	1492.395071580924	462.560861375469	1025.445018496992	944.221347403457	625.006570860171	988.824988043737	959.831307199768	352.988646996625	1051.897117609945	740.158046875556	602.031928954255	962.060949511998	636.815465273125	660.575468703162	1035.184939993909	580.411919189405	580.319634207008	1030.896525453134	494.107963228843	584.790765219327	1077.715170639337	795.325920634369	374.961633357340	1038.156681991664	668.946421768172	292.413696341598	1151.406567032656	612.535405131120	343.176604347134	1170.648160279733	523.344944697609	332.164774908629	1107.526754955630	452.175098790154	328.835498641409	966.184679517994	402.375238893522	288.451977034345	964.927831492655	271.961429775316	341.331679334532	1002.501561679148	406.832976653828	589.491177333247	929.888732851363	302.776628224396	648.615153031734	972.477065941466	208.747013122677	582.354071053330	837.666160134488	44.401696774511	547.327686077372	1010.076589898806	97.585581429856	583.828349512468	921.288525071066	37.123337523922	620.363852904011	1129.775553887566	41.233666369879	609.181943586146	782.285467002198	202.022549676184	388.214553422776	835.740715483466	153.435861761917	307.142948336153	941.355987429339	163.352481636926	322.678818580977	1018.073533498737	50.473020295211	295.887173568649	882.633618490156	1083.104602415657	226.815147281759	912.751972609002	824.192419354962	232.238643065914	1057.167940644328	1106.502581785388	788.554945033132	1252.743691107959	941.734044957965	749.056387868039	
5	3.056285714286	792.043840818401	1019.813850019051	527.448921552109	981.332881394384	1429.036289010714	311.755878615612	1098.053257716882	1354.896425911134	461.770264863356	1044.143853462419	1443.460671329516	640.419584211743	1007.035637563962	1492.542500800463	462.973729978250	1023.618069897282	944.461822351810	625.445657615724	986.491204827853	960.099338103062	353.402082182700	1047.360557754567	739.654918477901	602.094240867873	956.395893469359	637.280146604969	661.183335868999	1028.415781192589	579.926302038784	580.891475318619	1023.185982429275	494.099282906151	585.460963198941	1076.910610357901	798.789574377032	375.423061065413	1039.995467225612	671.802501747497	292.144966014277	1154.275757790872	617.599066109172	342.743213972918	1175.715795902652	529.284993644247	331.478033696661	1115.628871182249	456.219275858089	328.168356169804	976.615850630190	399.674719292081	288.335405122036	982.295401110814	268.953769018407	340.550095906916	994.601729743679	407.026459676606	590.057387791754	921.719383402177	303.126587768805	649.145895064093	964.412362462211	209.026779995057	582.858853543803	829.442382755107	44.606493066241	547.488068120852	1001.888387451857	97.547846726165	584.011859507878	913.078869733024	37.133809443585	620.461839557611	1121.530295957777	41.097111381318	609.307622973844	803.696831188628	189.066147476003	388.234073330019	859.169292310256	144.005996864043	306.414495809971	964.294533318244	159.561080527198	321.327837873310	1046.932223878828	51.131987261559	293.102788837492	874.547948729770	1085.303457736338	228.336308425930	892.171045440923	825.114641983659	236.137258867178	1069.010298864627	1107.631966000624	788.910817252013	1273.603421428333	955.609884710988	744.561981887481	
6	3.067857142857	790.457866879237	1020.544702595342	528.199611812438	980.118039777722	1429.310752698852	312.196389873147	1097.409173348352	1354.681594919370	461.483007819315	1044.914459328483	1443.310126284744	640.479075433801	1006.662435784548	1492.573135378688	463.373097789908	1021.845828241806	944.619531531185	625.685996652995	984.250048539409	960.177334704014	353.646899590870	1042.884346746701	739.126386288982	601.986114569290	950.888383167676	637.680597921401	661.686633742227	1021.832036627628	579.414387477225	581.364206097440	1015.663299680904	494.041161770052	586.070291520021	1075.812405035678	801.677924445950	375.850636412099	1041.367443469233	674.179362864709	291.899853630032	1156.380423913415	621.913124457072	342.582087374413	1179.856717759042	534.614883191860	331.043266727717	1122.943664047183	459.878663558837	327.609449802402	986.808692910551	396.451895864465	288.102671429305	999.687575826980	265.766892019230	339.582379007054	986.881010366509	407.194342447821	590.580505272774	913.719908533193	303.441436087883	649.624006036776	956.452416964129	209.274221058984	583.321967187711	821.303228144019	44.809165829751	547.645079612001	993.784976357307	97.504103524046	584.166113358402	904.954072892251	37.140164089967	620.551912176347	1113.369180949729	40.965458108647	609.425358530655	825.834627220077	175.816522196881	387.815462399618	883.254852961029	134.508138577448	305.319579867828	987.532073547041	155.807317778638	319.758230935213	1076.005508850016	52.289971034424	290.212579490182	866.425287994863	1087.694077242627	229.659549353857	872.751759319522	826.708884004181	240.054219276862	1080.514264424859	1108.860127843486	788.973472959339	1293.246116951543	969.996549801156	739.604729925817	
